<svg xmlns="http://www.w3.org/2000/svg" width="64" height="64" viewBox="0 0 64 64" role="img" aria-label="Winter Mail">
  <defs>
    <linearGradient id="g" x1="0" y1="0" x2="1" y2="1">
      <stop offset="0" stop-color="#c9a86a"/>
      <stop offset="0.55" stop-color="#84b7ff"/>
      <stop offset="1" stop-color="#b44a3b"/>
    </linearGradient>
    <filter id="s" x="-20%" y="-20%" width="140%" height="140%">
      <feDropShadow dx="0" dy="2" stdDeviation="2" flood-color="#000" flood-opacity="0.35"/>
    </filter>
  </defs>
  <rect x="6" y="10" width="52" height="44" rx="14" fill="#0b0f10"/>
  <path d="M14 22h36v22a8 8 0 0 1-8 8H22a8 8 0 0 1-8-8V22z" fill="url(#g)" opacity="0.9" filter="url(#s)"/>
  <path d="M14 22l18 14 18-14" fill="none" stroke="#fff" stroke-opacity="0.75" stroke-width="3" stroke-linecap="round"/>
  <circle cx="47" cy="44" r="7" fill="#c9a86a" opacity="0.92"/>
  <path d="M47 39.7l1.3 3.2 3.4.1-2.7 2.1.9 3.3-2.9-1.9-2.9 1.9.9-3.3-2.7-2.1 3.4-.1z" fill="#fff" opacity="0.82"/>
</svg>
